<mxfile host="app.diagrams.net" modified="2022-04-23T16:35:58.390Z" agent="5.0 (Windows NT 10.0; Win64; x64) AppleWebKit/537.36 (KHTML, like Gecko) Chrome/100.0.4896.127 Safari/537.36" etag="xhZqyKBr1PjdWe4gPVDP" version="16.6.6" type="github">
  <diagram id="fWAylGaQLFtinorT4Src" name="Page-1">
    <mxGraphModel dx="568" dy="506" grid="1" gridSize="100" guides="1" tooltips="1" connect="1" arrows="1" fold="1" page="1" pageScale="1" pageWidth="850" pageHeight="1100" background="#FFFFFF" math="0" shadow="0">
      <root>
        <mxCell id="0" />
        <mxCell id="1" parent="0" />
        <mxCell id="WaaBqBqUO06MXRlBcnNF-1" value="Motherboard" style="rounded=0;whiteSpace=wrap;html=1;" vertex="1" parent="1">
          <mxGeometry x="105" y="100" width="195" height="160" as="geometry" />
        </mxCell>
      </root>
    </mxGraphModel>
  </diagram>
</mxfile>
